<svg width="60" height="30" viewBox="0 0 60 30" fill="none" xmlns="http://www.w3.org/2000/svg">
<rect width="60" height="30" rx="5" fill="white"/>
<g clip-path="url(#clip0_9_38)">
<path d="M15.2266 8.32065C14.6992 8.92864 13.8555 9.40818 13.0117 9.33968C12.9063 8.5176 13.3193 7.64415 13.8027 7.10466C14.3301 6.47954 15.2529 6.03425 16 6C16.0879 6.85633 15.7451 7.69553 15.2266 8.32065ZM15.9912 9.50238C14.7695 9.43387 13.7236 10.1789 13.1436 10.1789C12.5547 10.1789 11.667 9.53663 10.7002 9.55376C9.44336 9.57089 8.27442 10.2645 7.63281 11.3692C6.31446 13.5785 7.29004 16.8497 8.56446 18.648C9.18848 19.5385 9.93555 20.5147 10.9199 20.4805C11.8516 20.4462 12.2207 19.8896 13.3457 19.8896C14.4795 19.8896 14.8047 20.4805 15.7891 20.4634C16.8086 20.4462 17.4502 19.5728 18.0742 18.6822C18.7861 17.6717 19.0762 16.687 19.0938 16.6356C19.0762 16.6185 17.125 15.8906 17.1074 13.6984C17.0898 11.8658 18.6455 10.9924 18.7158 10.941C17.8369 9.67364 16.4658 9.53663 15.9912 9.50238ZM23.0488 7.01903V20.3692H25.1758V15.8049H28.1201C30.8096 15.8049 32.6992 14.0067 32.6992 11.4034C32.6992 8.80019 30.8447 7.01903 28.1904 7.01903H23.0488V7.01903ZM25.1758 8.76594H27.6279C29.4736 8.76594 30.5283 9.72502 30.5283 11.412C30.5283 13.099 29.4736 14.0666 27.6191 14.0666H25.1758V8.76594V8.76594ZM36.584 20.4719C37.9199 20.4719 39.1592 19.8126 39.7217 18.7678H39.7656V20.3692H41.7344V13.7241C41.7344 11.7973 40.1523 10.5557 37.7178 10.5557C35.459 10.5557 33.7891 11.8145 33.7275 13.5442H35.6436C35.8018 12.7222 36.584 12.1827 37.6563 12.1827C38.957 12.1827 39.6865 12.7735 39.6865 13.8611V14.5975L37.0322 14.7517C34.5625 14.8972 33.2266 15.882 33.2266 17.5947C33.2266 19.3245 34.6064 20.4719 36.584 20.4719ZM37.1553 18.8877C36.0215 18.8877 35.3008 18.3568 35.3008 17.5433C35.3008 16.7041 35.9951 16.216 37.3223 16.1389L39.6865 15.9933V16.7469C39.6865 17.9971 38.5967 18.8877 37.1553 18.8877ZM44.3623 24C46.4365 24 47.4121 23.2293 48.2647 20.8915L52 10.6841H49.8379L47.333 18.5709H47.2891L44.7842 10.6841H42.5605L46.1641 20.4034L45.9707 20.9943C45.6455 21.9962 45.1182 22.3815 44.1777 22.3815C44.0107 22.3815 43.6855 22.3644 43.5537 22.3473V23.9486C43.6768 23.9829 44.2041 24 44.3623 24Z" fill="black"/>
</g>
<defs>
<clipPath id="clip0_9_38">
<rect width="45" height="18" fill="white" transform="translate(7 6)"/>
</clipPath>
</defs>
</svg>
