<svg width="60" height="30" viewBox="0 0 60 30" fill="none" xmlns="http://www.w3.org/2000/svg">
<rect width="60" height="30" rx="5" fill="white"/>
<g clip-path="url(#clip0_9_33)">
<path d="M28.8647 15.3051V20.2883H27.3136V7.98192H31.4272C31.9182 7.97147 32.4064 8.06023 32.8636 8.24309C33.3208 8.42594 33.7379 8.69927 34.0909 9.04731C34.4475 9.37421 34.7313 9.77512 34.9232 10.2231C35.1151 10.6711 35.2107 11.1557 35.2036 11.6445C35.2138 12.1359 35.1197 12.6237 34.9276 13.0745C34.7356 13.5253 34.4502 13.9285 34.0909 14.2564C33.3716 14.9555 32.4837 15.3048 31.4272 15.3041H28.8647V15.3051ZM28.8647 9.49703V13.7929H31.4658C31.7509 13.8015 32.0347 13.7494 32.299 13.6398C32.5632 13.5303 32.8021 13.3657 33.0004 13.1566C33.1977 12.9612 33.3545 12.7274 33.4615 12.4691C33.5686 12.2108 33.6237 11.9332 33.6237 11.6528C33.6237 11.3724 33.5686 11.0949 33.4615 10.8366C33.3545 10.5783 33.1977 10.3445 33.0004 10.149C32.8046 9.93556 32.5665 9.76695 32.302 9.65438C32.0374 9.5418 31.7524 9.48783 31.4658 9.49604H28.8647V9.49703Z" fill="#5F6368"/>
<path d="M38.7777 11.5934C39.9241 11.5934 40.8291 11.9057 41.4925 12.5302C42.156 13.1547 42.4874 14.0109 42.4867 15.0989V20.2883H41.0031V19.1199H40.9357C40.2934 20.0821 39.4393 20.5633 38.3731 20.5633C37.4631 20.5633 36.7017 20.2883 36.089 19.7385C35.7949 19.4861 35.5599 19.17 35.4009 18.8133C35.2419 18.4566 35.163 18.0682 35.1699 17.6764C35.1699 16.8051 35.493 16.1122 36.1391 15.5977C36.7852 15.0832 37.6477 14.8253 38.7267 14.824C39.6477 14.824 40.4062 14.9958 41.0022 15.3395V14.9781C41.0039 14.711 40.9473 14.4469 40.8365 14.2049C40.7257 13.9629 40.5635 13.749 40.3615 13.5789C39.9514 13.2017 39.4168 12.9959 38.8644 13.0025C37.998 13.0025 37.3125 13.375 36.8076 14.1199L35.4416 13.2431C36.193 12.1433 37.3051 11.5934 38.7777 11.5934ZM36.771 17.7108C36.77 17.912 36.8161 18.1105 36.9056 18.2899C36.9951 18.4692 37.1253 18.6242 37.2855 18.7418C37.6285 19.0168 38.0543 19.1625 38.4907 19.1542C39.1452 19.1531 39.7725 18.8876 40.2353 18.4158C40.7491 17.9229 41.006 17.3445 41.006 16.6808C40.5224 16.288 39.848 16.0916 38.9829 16.0916C38.3529 16.0916 37.8275 16.2464 37.4069 16.5561C36.982 16.8703 36.771 17.2522 36.771 17.7108V17.7108Z" fill="#5F6368"/>
<path d="M51.0029 11.8684L45.8238 24H44.2227L46.1446 19.7552L42.7391 11.8684H44.425L46.8864 17.917H46.9201L49.3141 11.8684H51.0029Z" fill="#5F6368"/>
<path d="M22.597 14.2309C22.5976 13.7491 22.5576 13.2681 22.4775 12.7933H15.9363V15.5162H19.6828C19.6061 15.9511 19.4439 16.3656 19.2058 16.7349C18.9677 17.1041 18.6587 17.4204 18.2975 17.6646V19.4321H20.5335C21.8427 18.2018 22.597 16.3823 22.597 14.2309Z" fill="#4285F4"/>
<path d="M15.9363 21.1397C17.8081 21.1397 19.3842 20.5132 20.5335 19.4331L18.2975 17.6656C17.6751 18.0957 16.8736 18.3412 15.9363 18.3412C14.1271 18.3412 12.5914 17.0981 12.0423 15.4229H9.73891V17.2444C10.3162 18.4153 11.2015 19.3996 12.2958 20.0875C13.3902 20.7753 14.6506 21.1396 15.9363 21.1397V21.1397Z" fill="#34A853"/>
<path d="M12.0423 15.4229C11.752 14.5451 11.752 13.5945 12.0423 12.7167V10.8953H9.73891C9.25325 11.8803 9.00032 12.9674 9.00032 14.0698C9.00032 15.1722 9.25325 16.2594 9.73891 17.2444L12.0423 15.4229Z" fill="#FBBC04"/>
<path d="M15.9363 9.79848C16.9254 9.78201 17.8812 10.1629 18.5971 10.859L20.5768 8.84111C19.3215 7.63931 17.6584 6.9795 15.9363 7.00001C14.6506 7.00007 13.3902 7.36435 12.2958 8.0522C11.2015 8.74004 10.3162 9.72437 9.73891 10.8953L12.0423 12.7168C12.5914 11.0416 14.1271 9.79848 15.9363 9.79848Z" fill="#EA4335"/>
</g>
<defs>
<clipPath id="clip0_9_33">
<rect width="42" height="17" fill="white" transform="translate(9 7)"/>
</clipPath>
</defs>
</svg>
