<svg width="60" height="30" viewBox="0 0 60 30" fill="none" xmlns="http://www.w3.org/2000/svg">
<g clip-path="url(#clip0_9_2)">
<rect width="60" height="30" rx="5" fill="white"/>
<path d="M34.3288 7.37595H25.6481V23.6241H34.3288V7.37595Z" fill="#FF5F00"/>
<path d="M26.1993 15.5C26.198 13.9352 26.5384 12.3906 27.1949 10.9831C27.8514 9.57555 28.8067 8.34206 29.9885 7.37595C28.525 6.17776 26.7673 5.43262 24.9165 5.2257C23.0656 5.01879 21.1961 5.35843 19.5218 6.20584C17.8475 7.05324 16.4359 8.37422 15.4483 10.0178C14.4607 11.6613 13.9369 13.5611 13.9369 15.5C13.9369 17.4389 14.4607 19.3387 15.4483 20.9823C16.4359 22.6258 17.8475 23.9468 19.5218 24.7942C21.1961 25.6416 23.0656 25.9812 24.9165 25.7743C26.7673 25.5674 28.525 24.8222 29.9885 23.6241C28.8067 22.6579 27.8514 21.4244 27.1949 20.0169C26.5384 18.6094 26.198 17.0648 26.1993 15.5V15.5Z" fill="#EB001B"/>
<path d="M46.0396 15.5C46.0397 17.4389 45.516 19.3387 44.5284 20.9822C43.5409 22.6258 42.1293 23.9467 40.455 24.7941C38.7807 25.6416 36.9113 25.9812 35.0605 25.7743C33.2096 25.5674 31.452 24.8222 29.9885 23.6241C31.1693 22.657 32.1239 21.4233 32.7802 20.016C33.4366 18.6087 33.7776 17.0646 33.7776 15.5C33.7776 13.9354 33.4366 12.3913 32.7802 10.984C32.1239 9.57673 31.1693 8.34303 29.9885 7.37595C31.452 6.17775 33.2096 5.43262 35.0605 5.2257C36.9113 5.01879 38.7807 5.35845 40.455 6.20586C42.1293 7.05328 43.5409 8.37425 44.5284 10.0178C45.516 11.6613 46.0397 13.5611 46.0396 15.5V15.5Z" fill="#F79E1B"/>
<path d="M45.0931 21.9031V21.5705H45.2219V21.5027H44.8939V21.5705H45.0227V21.9031H45.0931ZM45.7298 21.9031V21.502H45.6293L45.5137 21.7779L45.398 21.502H45.2974V21.9031H45.3684V21.6006L45.4768 21.8614H45.5504L45.6589 21.5999V21.9031H45.7298Z" fill="#F79E1B"/>
</g>
<defs>
<clipPath id="clip0_9_2">
<rect width="60" height="30" fill="white"/>
</clipPath>
</defs>
</svg>
