<svg width="60" height="30" viewBox="0 0 60 30" fill="none" xmlns="http://www.w3.org/2000/svg">
<rect width="60" height="30" rx="5" fill="white"/>
<path fill-rule="evenodd" clip-rule="evenodd" d="M16.0579 16.2694L20.0131 16.2644L19.869 17.1603L16.5612 20.3037L19.3379 20.2987L19.176 21.2651L15.0868 21.2676L15.2588 20.2685L18.43 17.2459H15.8986L16.0579 16.2694Z" fill="#D13239"/>
<path fill-rule="evenodd" clip-rule="evenodd" d="M11.731 14.7367C11.645 14.6461 11.5211 14.5757 11.3845 14.5203C11.2404 14.4649 11.0811 14.4246 10.9243 14.397C10.727 14.3617 10.5348 14.3466 10.3983 14.3416C10.2718 14.3366 10.1909 14.3366 10.1909 14.3366H8.46113H7.17393L6.02075 21.2676H7.09806L7.52291 18.7005L9.61178 18.7106C9.61178 18.7106 10.4261 18.7433 11.0027 18.4388C11.5793 18.1343 11.7335 17.4422 11.7335 17.4422C11.7335 17.4422 11.7967 17.1855 11.8498 16.8734C11.908 16.5286 11.9662 16.1159 11.9965 15.8969C12.0092 15.8013 12.0168 15.7409 12.0168 15.7409C12.0168 15.7409 12.0319 15.6704 12.0319 15.5597C12.0345 15.4062 12.0117 15.1746 11.8903 14.9532C11.8473 14.8751 11.7967 14.8047 11.731 14.7367ZM10.9015 15.9598C10.9015 15.9724 10.8054 16.5286 10.679 17.188C10.6309 17.4397 10.4362 17.5756 10.2137 17.6234C9.84444 17.7014 9.4474 17.6863 9.4474 17.6863L7.70247 17.6813L8.08686 15.3785L9.66742 15.3835C9.66742 15.3835 9.77363 15.381 9.92283 15.3835C10.0923 15.386 10.3173 15.3936 10.5019 15.4188C10.6613 15.4389 10.7877 15.4716 10.8282 15.5219C10.8813 15.5874 10.9015 15.6729 10.9091 15.7484C10.9192 15.8592 10.9015 15.9523 10.9015 15.9598Z" fill="#D13239"/>
<path fill-rule="evenodd" clip-rule="evenodd" d="M25.3769 14.3366H26.4137L25.253 21.2676L24.2136 21.2651L25.3769 14.3366Z" fill="#D13239"/>
<path fill-rule="evenodd" clip-rule="evenodd" d="M30.9101 16.2694L31.904 16.2669L32.2555 19.7853L33.7855 16.2619L35.012 16.2644L35.3736 19.7978L36.9011 16.2669H37.9329L35.7428 21.2626H34.5189L34.1648 17.7643L32.6197 21.2626L31.4159 21.2676L30.9101 16.2694Z" fill="#D13239"/>
<path d="M23.4625 16.3097C23.1717 16.2166 22.6684 16.1964 22.2411 16.2015C21.8289 16.2065 21.6392 16.2266 21.4849 16.2594C21.4849 16.2594 20.7516 16.3651 20.3343 16.8785C19.917 17.3919 19.7931 18.5143 19.7931 18.5143C19.7931 18.5143 19.5453 19.7551 19.6186 20.1703C19.692 20.5831 19.8209 20.9681 20.2913 21.1468C20.7617 21.328 21.1612 21.318 21.1612 21.318C21.1612 21.318 22.0008 21.3834 22.633 21.2349C23.2653 21.0864 23.5991 20.6435 23.5991 20.6435C23.5991 20.6435 23.7483 20.4522 23.8545 20.2257C23.9607 19.9992 23.9936 19.8406 23.9986 19.8205L24.0644 19.5512L22.9896 19.5537C22.9896 19.5537 22.9315 20.2609 22.3498 20.3264C21.7707 20.3918 21.4596 20.3666 21.3458 20.3616C21.2346 20.3566 20.6125 20.3843 20.663 19.8658C20.663 19.8583 20.663 19.8482 20.6656 19.8331C20.6934 19.2442 20.7591 19.0907 20.7591 19.0907L24.1352 19.0806L24.2793 18.2501C24.4463 17.3088 24.3274 16.5916 23.4625 16.3097ZM23.2374 18.1318L20.9235 18.1293L21.0146 17.7644C21.0146 17.7644 21.0955 17.4774 21.2548 17.3566C21.4167 17.2358 21.6215 17.2132 21.8137 17.1956C22.0059 17.178 22.5192 17.1402 22.9365 17.2258C23.0756 17.2535 23.2071 17.3315 23.2425 17.4472C23.3234 17.7191 23.2374 18.1318 23.2374 18.1318Z" fill="#D13239"/>
<path d="M20.6706 19.8432C20.6706 19.8507 20.6681 19.8583 20.6681 19.8658C20.6656 19.9061 20.6706 19.8406 20.6706 19.8432Z" fill="#D13239"/>
<path d="M27.0384 19.8457C27.0384 19.8532 27.0359 19.8608 27.0359 19.8683C27.0359 19.9086 27.0384 19.8432 27.0384 19.8457Z" fill="#D13239"/>
<path d="M29.8328 16.3122C29.542 16.2191 29.0387 16.199 28.6113 16.204C28.1991 16.209 28.0095 16.2292 27.8552 16.2619C27.8552 16.2619 27.1218 16.3676 26.7046 16.881C26.2873 17.3944 26.1634 18.5169 26.1634 18.5169C26.1634 18.5169 25.9155 19.7576 25.9889 20.1728C26.0622 20.5856 26.1912 20.9706 26.6616 21.1493C27.1319 21.3305 27.5315 21.3205 27.5315 21.3205C27.5315 21.3205 28.3711 21.3859 29.0033 21.2374C29.6355 21.0889 29.9694 20.646 29.9694 20.646C29.9694 20.646 30.1186 20.4547 30.2248 20.2282C30.331 20.0017 30.3639 19.8432 30.3689 19.823L30.4347 19.5537L29.3599 19.5563C29.3599 19.5563 29.3017 20.2635 28.7201 20.3289C28.141 20.3943 27.8299 20.3692 27.7161 20.3666C27.6048 20.3616 26.9827 20.3868 27.0333 19.8708C27.0333 19.8633 27.0333 19.8532 27.0358 19.8381C27.0637 19.2492 27.1294 19.0957 27.1294 19.0957L30.5055 19.0856L30.6496 18.2551C30.8165 17.3113 30.6977 16.5916 29.8328 16.3122ZM29.5976 18.1318L27.2837 18.1293L27.3747 17.7644C27.3747 17.7644 27.4556 17.4774 27.615 17.3566C27.7743 17.2358 27.9816 17.2132 28.1738 17.1956C28.366 17.178 28.8794 17.1402 29.2967 17.2258C29.4358 17.2535 29.5673 17.3315 29.6027 17.4472C29.6836 17.7165 29.5976 18.1318 29.5976 18.1318Z" fill="#D13239"/>
<path fill-rule="evenodd" clip-rule="evenodd" d="M39.1265 16.2694L39.7916 19.9237L41.6705 16.2669L42.7276 16.277L40.0192 21.4991C40.0192 21.4991 39.5285 22.4454 39.2251 22.6845C38.9216 22.9236 38.7345 23.0318 38.4866 23.057C38.2388 23.0822 38.1377 23.0998 37.8999 23.057L37.6471 23.0117L37.8038 22.078C37.8038 22.078 38.2236 22.156 38.4715 22.0579C38.7218 21.9597 38.9216 21.5369 38.9216 21.5369L39.0481 21.3255L38.0694 16.2669L39.1265 16.2694Z" fill="#D13239"/>
<path fill-rule="evenodd" clip-rule="evenodd" d="M43.112 16.7652L44.202 16.7677L44.2677 16.3474C44.2677 16.3474 44.3841 15.5874 44.6445 15.4414C44.728 15.3936 44.862 15.3508 45.0163 15.3231C45.3021 15.2728 45.6637 15.2678 45.9596 15.2778C46.4122 15.2929 46.5842 15.298 47.0445 15.3508C47.5047 15.4037 47.3884 15.8466 47.3884 15.8466L47.2974 16.5085C47.2974 16.5085 47.2569 16.8055 47.1507 16.9892C47.0571 17.1528 46.7992 17.2635 46.65 17.3113C46.2909 17.4271 45.0618 17.7392 45.0618 17.7392L44.0958 18.016C44.0958 18.016 43.5015 18.1872 43.1702 18.5521C42.8364 18.9195 42.7049 19.3348 42.6594 19.5512C42.6138 19.7677 42.3584 21.2651 42.3584 21.2651L47.573 21.2676L47.7475 20.2307L43.6229 20.2358L43.6962 19.813C43.6962 19.813 43.7443 19.3776 43.9213 19.2341C43.9769 19.1888 44.0047 19.1284 44.3335 19.0126C44.5307 18.9422 45.2034 18.7635 45.2034 18.7635L46.7587 18.3407C46.7587 18.3407 47.6084 18.1242 47.9422 17.6612C48.276 17.2006 48.405 16.3172 48.405 16.3172C48.405 16.3172 48.4961 15.459 48.4252 15.1897C48.357 14.9205 48.1015 14.5983 47.7905 14.4599C47.4794 14.3215 47.1557 14.2409 46.2175 14.2535C45.2793 14.2661 44.814 14.3089 44.3385 14.4851C43.8631 14.6587 43.5875 14.9758 43.413 15.4238C43.2233 15.8491 43.112 16.7652 43.112 16.7652Z" fill="#B3B2B1"/>
<path fill-rule="evenodd" clip-rule="evenodd" d="M52.9292 18.693L53.66 14.3341H52.3652L48.3342 18.6427L48.1521 19.7349H51.6774L51.4194 21.2651L52.5018 21.2676L52.7572 19.7349L53.7561 19.7375L53.9357 18.693H52.9292ZM51.8519 18.6955L49.5733 18.693L52.3475 15.751L51.8519 18.6955Z" fill="#B3B2B1"/>
<path fill-rule="evenodd" clip-rule="evenodd" d="M14.0171 14.9079H17.3375C17.3375 14.9079 18.081 14.3089 18.6096 13.9238C19.1381 13.5388 20.0991 12.9322 20.0991 12.9322L18.2227 12.0589C18.2227 12.0589 16.637 13.0354 15.9644 13.496C15.3119 13.9213 14.0171 14.9079 14.0171 14.9079Z" fill="#B3B2B1"/>
<path fill-rule="evenodd" clip-rule="evenodd" d="M21.1536 12.3157L19.6135 11.2838C19.6135 11.2838 21.007 10.4961 22.8606 9.7612C24.7118 9.02632 25.7006 8.71928 25.7006 8.71928L26.0142 10.1815C26.0142 10.1815 24.2313 10.7754 23.2096 11.2561C22.1525 11.7041 21.1536 12.3157 21.1536 12.3157Z" fill="#B3B2B1"/>
<path fill-rule="evenodd" clip-rule="evenodd" d="M27.1522 9.86187L26.8841 8.36442C26.8841 8.36442 28.7858 7.86108 30.5257 7.53894C32.2681 7.2168 34.577 7.06328 34.577 7.06328L33.8133 9.37614C33.8133 9.37614 31.7826 9.0993 29.8758 9.35852C28.3913 9.53469 27.1522 9.86187 27.1522 9.86187Z" fill="#B3B2B1"/>
<path fill-rule="evenodd" clip-rule="evenodd" d="M35.0221 9.57244L36.3068 7.00288C36.3068 7.00288 39.1214 6.94751 41.5492 7.3225C43.9769 7.69497 46.1973 8.26878 46.1492 8.29395L39.9939 11.4977C39.9939 11.4977 38.555 10.5917 36.7696 10.0355C35.758 9.73855 35.0221 9.57244 35.0221 9.57244Z" fill="#B3B2B1"/>
<path fill-rule="evenodd" clip-rule="evenodd" d="M41.0965 12.1949L42.4495 13.2166H53.569C53.569 13.2166 53.5462 12.8593 53.2504 12.3509C53.0657 12.0338 52.7294 11.6965 52.3779 11.3467C52.2489 11.2209 51.7381 10.8232 51.3537 10.5741C50.3725 9.93988 49.8237 9.69576 48.8046 9.2352L41.0965 12.1949Z" fill="#B3B2B1"/>
<path d="M14.7378 16.2644C14.3206 16.2644 13.9261 16.428 13.5897 16.6117L13.6479 16.2644H12.5428L11.6577 21.2399H12.7653L13.2559 18.4841C13.3571 17.9254 13.7769 17.2333 14.5962 17.2333L15.1678 17.2308L15.3397 16.2644H14.7378Z" fill="#D13239"/>
</svg>
