<svg width="60" height="30" viewBox="0 0 60 30" fill="none" xmlns="http://www.w3.org/2000/svg">
<rect width="60" height="30" rx="5" fill="white"/>
<g clip-path="url(#clip0_9_5)">
<path d="M27.4666 21.8124H24.3884L26.3137 9.2281H29.3918L27.4666 21.8124Z" fill="#00579F"/>
<path d="M38.6256 9.53575C38.0185 9.28112 37.0554 8.99998 35.8647 8.99998C32.8248 8.99998 30.6841 10.7135 30.671 13.1633C30.6457 14.9708 32.2036 15.9747 33.3688 16.5774C34.5598 17.1932 34.9646 17.5952 34.9646 18.1441C34.9525 18.9872 34.0022 19.3758 33.116 19.3758C31.887 19.3758 31.2285 19.1754 30.2278 18.7064L29.8224 18.5053L29.3917 21.3302C30.1136 21.6779 31.4438 21.9865 32.8248 22C36.0547 22 38.1575 20.313 38.1824 17.7023C38.1947 16.2697 37.3721 15.1721 35.5985 14.2751C34.5219 13.6993 33.8625 13.311 33.8625 12.7219C33.8752 12.1863 34.4202 11.6377 35.6356 11.6377C36.6363 11.6108 37.3716 11.8651 37.9286 12.1196L38.207 12.2532L38.6256 9.53575V9.53575Z" fill="#00579F"/>
<path d="M42.7169 17.3543C42.9704 16.6313 43.9459 13.8333 43.9459 13.8333C43.9331 13.8601 44.1989 13.097 44.3509 12.6285L44.566 13.7128C44.566 13.7128 45.1489 16.7251 45.2755 17.3543C44.7944 17.3543 43.3249 17.3543 42.7169 17.3543ZM46.5166 9.2281H44.1356C43.4013 9.2281 42.8435 9.45551 42.5267 10.2722L37.9543 21.8123H41.1842C41.1842 21.8123 41.716 20.2591 41.8303 19.9245C42.1846 19.9245 45.3267 19.9245 45.7825 19.9245C45.8709 20.3664 46.1498 21.8123 46.1498 21.8123H49L46.5166 9.2281V9.2281Z" fill="#00579F"/>
<path d="M21.8173 9.2281L18.8026 17.8094L18.4732 16.069C17.9159 14.0608 16.1679 11.879 14.2173 10.7941L16.9786 21.7991H20.2338L25.0723 9.2281H21.8173V9.2281Z" fill="#00579F"/>
<path d="M16.0033 9.2281H11.0507L11 9.48237C14.8634 10.5267 17.422 13.0439 18.4732 16.0696L17.3966 10.2859C17.2193 9.4822 16.6746 9.25462 16.0033 9.2281Z" fill="#FAA61A"/>
</g>
<defs>
<clipPath id="clip0_9_5">
<rect width="38" height="13" fill="white" transform="translate(11 9)"/>
</clipPath>
</defs>
</svg>
